<svg version="1.1" xmlns="http://www.w3.org/2000/svg" xmlns:xlink="http://www.w3.org/1999/xlink" width="615.46904" height="479.16054" viewBox="0,0,615.46904,479.16054"><g transform="translate(77.84629,14.3195)"><g data-paper-data="{&quot;isPaintingLayer&quot;:true}" fill="#000000" fill-rule="nonzero" stroke-linecap="butt" stroke-linejoin="miter" stroke-miterlimit="10" stroke-dasharray="" stroke-dashoffset="0" style="mix-blend-mode: normal"><path d="M536.46696,410.52551c0,0 -82.80138,50.31521 -136.88731,50.31521c-49.19031,0 -189.69864,10.07283 -280.14927,-6.69396c-81.21746,-15.05525 -115.6277,-57.13476 -115.6277,-57.13476l-80.57295,-322.98498c0,0 53.79873,-82.22313 111.9946,-86.51474c107.0147,-7.89172 478.47202,42.9712 478.47202,42.9712l22.77062,380.04204z" stroke="#000000" stroke-width="2"/><path d="M223.84836,151.34026c0,-1.38071 1.11929,-2.5 2.5,-2.5c1.38071,0 2.5,1.11929 2.5,2.5c0,1.38071 -1.11929,2.5 -2.5,2.5c-1.38071,0 -2.5,-1.11929 -2.5,-2.5z" stroke="none" stroke-width="0.5"/></g></g></svg>